# xmcd
#
# Track frame offsets: 
#        150
#        17800
#        39530
#
# Disc length: 834 seconds
#
# Revision: 0
# Processed by: cddbd v1.4PL0 Copyright (c) Steve Scherf et al.
# Submitted via: ExactAudioCopy v0.90b4
#
DISCID=1c034003
DTITLE=Annie Lennox - Precious [CD single)
DYEAR=1992
DGENRE=Pop
TTITLE0=Precious
TTITLE1=Step By Step
TTITLE2=Precious (album version)
EXTD=From:\n\nPicture Edition compact disc.
EXTT0=
EXTT1=
EXTT2=
PLAYORDER=
